<svg id="SvgjsSvg1001" width="288" height="288" xmlns="http://www.w3.org/2000/svg" version="1.1" xmlns:xlink="http://www.w3.org/1999/xlink" xmlns:svgjs="http://svgjs.com/svgjs"><defs id="SvgjsDefs1002"></defs><g id="SvgjsG1008" transform="matrix(0.9167,0,0,0.9167,11.83310303764344,11.995198808383947)"><svg xmlns="http://www.w3.org/2000/svg" width="288" height="288" viewBox="0 0 74 74"><path d="M50.532,71H23.468a6.267,6.267,0,0,1-6.22-5.524l-4-41.38a1,1,0,0,1,1-1.1H59.759a1,1,0,0,1,1,1.1l-4,41.358A6.271,6.271,0,0,1,50.532,71ZM15.343,25l3.893,40.262A4.262,4.262,0,0,0,23.468,69H50.532a4.266,4.266,0,0,0,4.234-3.76L58.657,25Z" fill="#ff0000" class="color000 svgShape"></path><path d="M63.613,25H9.387A2.39,2.39,0,0,1,7,22.613V14.387A2.39,2.39,0,0,1,9.387,12H63.613A2.39,2.39,0,0,1,66,14.387v8.227A2.39,2.39,0,0,1,63.613,25ZM9.387,14A.387.387,0,0,0,9,14.387v8.227A.387.387,0,0,0,9.387,23H63.613A.387.387,0,0,0,64,22.613V14.387A.387.387,0,0,0,63.613,14Z" fill="#ff0000" class="color000 svgShape"></path><path d="M47 14H27a1 1 0 01-1-1V6.395A3.4 3.4 0 0129.395 3H44.605A3.4 3.4 0 0148 6.395V13A1 1 0 0147 14zM28 12H46V6.395A1.4 1.4 0 0044.605 5H29.395A1.4 1.4 0 0028 6.395zM27.181 57a1 1 0 01-.994-.9l-2.182-21a1 1 0 111.989-.207l2.182 21a1 1 0 01-.891 1.1A.948.948 0 0127.181 57zM37 57a1 1 0 01-1-1V35a1 1 0 012 0V56A1 1 0 0137 57zM46.819 57a.948.948 0 01-.1-.005 1 1 0 01-.891-1.1l2.182-21a1 1 0 111.989.207l-2.182 21A1 1 0 0146.819 57z" fill="#ff0000" class="color000 svgShape"></path></svg></g></svg>