<svg height="512.00001pt" viewBox="0 0 512.00001 512.00001" width="512.00001pt" xmlns="http://www.w3.org/2000/svg"><path d="m284.109375 446.371094 37.289063 11.9375-8.0625-38.007813zm0 0"/><path d="m264.535156 256c0 4.710938-3.824218 8.535156-8.535156 8.535156s-8.535156-3.824218-8.535156-8.535156 3.824218-8.535156 8.535156-8.535156 8.535156 3.824218 8.535156 8.535156zm0 0"/><path d="m256 0c-141.386719 0-256 114.613281-256 256s114.613281 256 256 256 256-114.613281 256-256-114.613281-256-256-256zm79.921875 444.535156 5.230469 24.617188c.96875 4.613281-1.988282 9.136718-6.597656 10.105468-1.433594.296876-2.917969.226563-4.316407-.214843l-65.507812-20.980469c-4.492188-1.429688-6.976563-6.226562-5.546875-10.71875.460937-1.460938 1.3125-2.769531 2.457031-3.789062l51.34375-45.800782c3.519531-3.136718 8.914063-2.828125 12.050781.6875.988282 1.109375 1.671875 2.460938 1.980469 3.914063l5.324219 25.078125c94.585937-42.230469 137.027344-153.148438 94.796875-247.734375-42.234375-94.589844-153.148438-137.03125-247.738281-94.796875-94.585938 42.234375-137.027344 153.148437-94.792969 247.738281 20.589843 46.117187 58.914062 81.984375 106.292969 99.480469l49.28125-156.160156c-9.421876-7.292969-12.417969-20.203126-7.175782-30.902344l-68.328125-68.332032c-3.273437-3.390624-3.179687-8.792968.210938-12.066406 3.304687-3.195312 8.550781-3.195312 11.855469 0l68.285156 68.300782c3.417968-1.667969 7.167968-2.542969 10.972656-2.5625 14.136719-.070313 25.660156 11.332031 25.730469 25.46875.074219 14.140624-11.328125 25.660156-25.464844 25.734374l-51.722656 163.898438c-.632813 2-1.980469 3.699219-3.789063 4.769531-1.386718.816407-2.96875 1.25-4.582031 1.253907-.847656 0-1.691406-.128907-2.5-.382813-107.828125-34.359375-167.382813-149.625-133.023437-257.453125 34.359374-107.828125 149.625-167.382812 257.449218-133.023438 107.828125 34.359376 167.386719 149.625 133.027344 257.453126-18.136719 56.917968-60.210938 103.085937-115.203125 126.417968zm56.613281-188.535156c0-4.710938 3.820313-8.535156 8.53125-8.535156h17.066406c4.714844 0 8.535157 3.824218 8.535157 8.535156s-3.820313 8.535156-8.535157 8.535156h-17.066406c-4.710937 0-8.53125-3.824218-8.53125-8.535156zm-128-162.132812v17.066406c0 4.710937-3.824218 8.53125-8.535156 8.53125s-8.535156-3.820313-8.535156-8.53125v-17.066406c0-4.714844 3.824218-8.535157 8.535156-8.535157s8.535156 3.820313 8.535156 8.535157zm-145.070312 162.132812c0 4.710938-3.820313 8.535156-8.53125 8.535156h-17.066406c-4.714844 0-8.535157-3.824218-8.535157-8.535156s3.820313-8.535156 8.535157-8.535156h17.066406c4.710937 0 8.53125 3.824218 8.53125 8.535156zm0 0"/></svg>