<?xml version="1.0" encoding="utf-8"?>
<!-- Generator: Adobe Illustrator 19.0.0, SVG Export Plug-In . SVG Version: 6.00 Build 0)  -->
<svg version="1.1" id="Capa_1" xmlns="http://www.w3.org/2000/svg" xmlns:xlink="http://www.w3.org/1999/xlink" x="0px" y="0px"
	 viewBox="206 -206 512 512" style="enable-background:new 206 -206 512 512;" xml:space="preserve">
<style type="text/css">
	.st0{fill:#404040;}
</style>
<g>
	<path class="st0" d="M462-111.7c-89.2,0-161.7,72.5-161.7,161.7S372.8,211.7,462,211.7S623.7,139.2,623.7,50S551.2-111.7,462-111.7
		L462-111.7z M433.6,123.2L371,60.6l21.3-21.3L434,81l97.9-94l20.9,21.7L433.6,123.2z"/>
	<path class="st0" d="M718,50c0-22.1-21.9-40.9-27.3-61.3c-5.6-21,3.7-48.3-7-66.7c-10.8-18.7-39.2-24.2-54.4-39.4
		c-15.2-15.2-20.7-43.5-39.4-54.4c-18.4-10.7-45.7-1.3-66.7-7c-20.3-5.4-39.2-27.3-61.3-27.3c-22.1,0-40.9,21.9-61.3,27.3
		c-21,5.6-48.3-3.7-66.7,7c-18.7,10.8-24.2,39.2-39.4,54.4c-15.2,15.2-43.5,20.7-54.4,39.4c-10.7,18.4-1.3,45.7-7,66.7
		C227.9,9.1,206,27.9,206,50s21.9,40.9,27.3,61.3c5.6,21-3.7,48.3,7,66.7c10.8,18.7,39.2,24.2,54.4,39.4
		c15.2,15.2,20.7,43.5,39.4,54.4c18.4,10.7,45.7,1.3,66.7,7c20.3,5.4,39.2,27.3,61.3,27.3c22.1,0,40.9-21.9,61.3-27.3
		c21-5.6,48.3,3.7,66.7-7c18.7-10.8,24.2-39.2,39.4-54.4c15.2-15.2,43.5-20.7,54.4-39.4c10.7-18.4,1.3-45.7,7-66.7
		C696.1,90.9,718,72.1,718,50z M462,241.8c-105.8,0-191.8-86.1-191.8-191.8S356.2-141.8,462-141.8S653.8-55.8,653.8,50
		S567.8,241.8,462,241.8L462,241.8z"/>
</g>
</svg>
