<?xml version="1.0" encoding="utf-8"?>
<!-- Generator: Adobe Illustrator 19.0.0, SVG Export Plug-In . SVG Version: 6.00 Build 0)  -->
<svg version="1.1" id="Layer_1" xmlns="http://www.w3.org/2000/svg" xmlns:xlink="http://www.w3.org/1999/xlink" x="0px" y="0px"
	 viewBox="206 -206 512 512" style="enable-background:new 206 -206 512 512;" xml:space="preserve">
<style type="text/css">
	.st0{fill:#404040;}
</style>
<path class="st0" d="M490.1,240.4l37.3,11.9l-8.1-38L490.1,240.4z"/>
<path d="M470.5,50c0,4.7-3.8,8.5-8.5,8.5s-8.5-3.8-8.5-8.5s3.8-8.5,8.5-8.5S470.5,45.3,470.5,50z"/>
<path class="st0" d="M462-206C320.6-206,206-91.4,206,50s114.6,256,256,256S718,191.4,718,50S603.4-206,462-206z M541.9,238.5
	l5.2,24.6c1,4.6-2,9.1-6.6,10.1c-1.4,0.3-2.9,0.2-4.3-0.2l-65.5-21c-4.5-1.4-7-6.2-5.5-10.7c0.5-1.5,1.3-2.8,2.5-3.8l51.3-45.8
	c3.5-3.1,8.9-2.8,12.1,0.7c1,1.1,1.7,2.5,2,3.9l5.3,25.1c94.6-42.2,137-153.1,94.8-247.7c-42.2-94.6-153.1-137-247.7-94.8
	c-94.6,42.2-137,153.1-94.8,247.7c20.6,46.1,58.9,82,106.3,99.5L446.2,70c-9.4-7.3-12.4-20.2-7.2-30.9l-68.3-68.3
	c-3.3-3.4-3.2-8.8,0.2-12.1c3.3-3.2,8.6-3.2,11.9,0L451,27c3.4-1.7,7.2-2.5,11-2.6c14.1-0.1,25.7,11.3,25.7,25.5
	c0.1,14.1-11.3,25.7-25.5,25.7l-51.7,163.9c-0.6,2-2,3.7-3.8,4.8c-1.4,0.8-3,1.3-4.6,1.3c-0.8,0-1.7-0.1-2.5-0.4
	c-107.8-34.4-167.4-149.6-133-257.5s149.6-167.4,257.4-133C631.9-111,691.5,4.3,657.1,112.1C639,169,596.9,215.2,541.9,238.5z
	 M598.5,50c0-4.7,3.8-8.5,8.5-8.5h17.1c4.7,0,8.5,3.8,8.5,8.5s-3.8,8.5-8.5,8.5h-17.1C602.4,58.5,598.5,54.7,598.5,50z M470.5-112.1
	v17.1c0,4.7-3.8,8.5-8.5,8.5s-8.5-3.8-8.5-8.5v-17.1c0-4.7,3.8-8.5,8.5-8.5S470.5-116.8,470.5-112.1z M325.5,50
	c0,4.7-3.8,8.5-8.5,8.5h-17.1c-4.7,0-8.5-3.8-8.5-8.5s3.8-8.5,8.5-8.5h17.1C321.6,41.5,325.5,45.3,325.5,50z"/>
</svg>
