<svg id="Capa_1" enable-background="new 0 0 510 510" height="512" viewBox="0 0 510 510" width="512" xmlns="http://www.w3.org/2000/svg"><g><path d="m255 93.921c-88.819 0-161.079 72.26-161.079 161.079s72.26 161.079 161.079 161.079 161.079-72.26 161.079-161.079-72.26-161.079-161.079-161.079zm-28.322 233.97-62.284-62.284 21.213-21.213 41.5 41.499 97.505-93.605 20.776 21.643z"/><path d="m510 255c0-21.971-21.767-40.789-27.183-61.052-5.604-20.966 3.674-48.115-6.947-66.472-10.774-18.621-39.025-24.096-54.138-39.208-15.112-15.112-20.587-43.364-39.208-54.138-18.357-10.621-45.506-1.344-66.472-6.948-20.264-5.415-39.081-27.182-61.052-27.182s-40.788 21.767-61.052 27.183c-20.966 5.604-48.115-3.674-66.471 6.947-18.621 10.774-24.096 39.025-39.208 54.138-15.112 15.112-43.364 20.587-54.138 39.208-10.621 18.357-1.343 45.506-6.947 66.472-5.417 20.264-27.184 39.081-27.184 61.052s21.767 40.788 27.183 61.052c5.604 20.966-3.674 48.115 6.947 66.471 10.774 18.621 39.025 24.096 54.138 39.208 15.112 15.112 20.587 43.364 39.208 54.138 18.357 10.621 45.506 1.344 66.472 6.948 20.264 5.416 39.081 27.183 61.052 27.183s40.788-21.767 61.052-27.183c20.966-5.604 48.115 3.674 66.471-6.947 18.621-10.774 24.096-39.025 39.208-54.138 15.112-15.112 43.364-20.587 54.138-39.208 10.621-18.357 1.343-45.506 6.947-66.472 5.417-20.264 27.184-39.081 27.184-61.052zm-255 191.079c-105.361 0-191.079-85.718-191.079-191.079s85.718-191.079 191.079-191.079 191.079 85.718 191.079 191.079-85.718 191.079-191.079 191.079z"/></g></svg>