<?xml version="1.0" encoding="utf-8"?>
<!-- Generator: Adobe Illustrator 19.0.0, SVG Export Plug-In . SVG Version: 6.00 Build 0)  -->
<svg version="1.1" id="Layer_1" xmlns="http://www.w3.org/2000/svg" xmlns:xlink="http://www.w3.org/1999/xlink" x="0px" y="0px"
	 viewBox="-145 347 320 100" style="enable-background:new -145 347 320 100;" xml:space="preserve">
<style type="text/css">
	.st0{fill:#FF385C;}
</style>
<path id="XMLID_14_" class="st0" d="M-97,434.6c-15,0-28-8.3-34.4-20.8c-2.7-5.3-4.2-11.1-4.2-17.4c0-6.3,1.5-12.2,4.2-17.5
	c6.4-12.5,19.4-21.5,34.4-21.5s28,8.6,34.4,20.6h7.3c-6.9-16-23-27.2-41.7-27.2s-34.9,11.7-41.7,27.9c-2.3,5.4-3.6,11.5-3.6,17.7
	c0,6.2,1.3,12.2,3.6,17.6c6.8,16.3,22.9,27.2,41.7,27.2S-62.2,429-55.4,413h-7.3C-69,427-82,434.6-97,434.6z"/>
<path id="XMLID_17_" class="st0" d="M-68.8,379c-5.9-9.5-16.3-16.2-28.2-16.2s-22.4,7.2-28.3,15.2h8.4c4.9-6,11.9-8.5,19.8-8.5
	s15,3.7,19.8,9.2c4.1,4.7,6.7,10.9,6.7,17.7c0,6.8-2.5,12.9-6.6,17.6c-4.9,5.5-11.9,8.4-19.8,8.4s-15-3.4-19.9-9.4h-8.4
	c5.9,10,16.4,16.2,28.3,16.2s22.4-6,28.2-15.4c3.2-5.1,5-11,5-17.4S-65.6,384.1-68.8,379z"/>
<g id="XMLID_3_">
	<path id="XMLID_4_" class="st0" d="M-23.7,411c-2.3,1.1-5.3,1.7-9,1.7c-4.8,0-8.6-1.4-11.3-4.2c-2.8-2.8-4.1-6.6-4.1-11.3
		c0-5,1.5-9.1,4.6-12.2s7.1-4.7,12-4.7c3.1,0,5.6,0.4,7.7,1.2v6.8c-2.1-1.3-4.5-1.9-7.2-1.9c-2.9,0-5.3,0.9-7.1,2.8
		c-1.8,1.8-2.7,4.4-2.7,7.5c0,3,0.9,5.4,2.6,7.2s4,2.7,6.9,2.7c2.8,0,5.3-0.7,7.6-2V411z"/>
	<path id="XMLID_6_" class="st0" d="M-5.6,412.7c-4.5,0-8.1-1.5-11-4.4c-2.8-2.9-4.2-6.7-4.2-11.4c0-5,1.4-9,4.3-12
		c2.9-3.1,6.7-4.6,11.4-4.6c4.5,0,8.1,1.5,10.8,4.4c2.7,2.9,4.1,6.8,4.1,11.6c0,4.9-1.4,8.9-4.3,11.9S-1,412.7-5.6,412.7z
		 M-5.3,386.3c-2.5,0-4.4,0.9-5.9,2.8s-2.2,4.3-2.2,7.4s0.7,5.6,2.2,7.4c1.5,1.8,3.4,2.7,5.7,2.7c2.4,0,4.4-0.9,5.8-2.6
		c1.4-1.8,2.1-4.2,2.1-7.3c0-3.2-0.7-5.8-2.1-7.6C-1,387.2-2.9,386.3-5.3,386.3z"/>
	<path id="XMLID_9_" class="st0" d="M41.4,412.1h-8.1l-4.9-8.1c-0.4-0.6-0.7-1.2-1-1.6s-0.7-0.9-1-1.2c-0.3-0.3-0.7-0.6-1.1-0.8
		c-0.4-0.2-0.8-0.3-1.2-0.3h-1.9v12h-7.1v-31.3h11.2c7.6,0,11.4,2.8,11.4,8.5c0,1.1-0.2,2.1-0.5,3c-0.3,0.9-0.8,1.8-1.4,2.5
		c-0.6,0.7-1.4,1.4-2.2,1.9c-0.9,0.5-1.8,1-2.9,1.3v0.1c0.5,0.1,0.9,0.4,1.4,0.7c0.4,0.3,0.9,0.7,1.3,1.1c0.4,0.4,0.8,0.9,1.2,1.4
		s0.7,1,1,1.5L41.4,412.1z M22.2,386.1v8.7h3.1c1.5,0,2.7-0.4,3.6-1.3c0.9-0.9,1.4-2,1.4-3.3c0-2.7-1.6-4.1-4.9-4.1
		C25.4,386.1,22.2,386.1,22.2,386.1z"/>
	<path id="XMLID_12_" class="st0" d="M63.1,412.1H44.3v-31.3h18.1v5.7h-11v7h10.2v5.7H51.4v7.2h11.7V412.1z"/>
	<path id="XMLID_15_" class="st0" d="M90,410.8c-2.3,1.2-5.2,1.8-8.7,1.8c-4.5,0-8-1.4-10.7-4.3c-2.7-2.9-4-6.6-4-11.3
		c0-5,1.5-9.1,4.5-12.1c3-3.1,6.8-4.6,11.5-4.6c3,0,5.4,0.4,7.4,1.3v3.9c-2.2-1.3-4.7-1.9-7.4-1.9c-3.6,0-6.5,1.2-8.7,3.6
		c-2.2,2.4-3.4,5.6-3.4,9.6c0,3.8,1,6.9,3.1,9.1c2.1,2.2,4.8,3.4,8.2,3.4c3.1,0,5.9-0.7,8.2-2.1L90,410.8L90,410.8z"/>
	<path id="XMLID_20_" class="st0" d="M120.6,412.1h-4.1l-3.3-8.8H99.9l-3.1,8.8h-4.1l12-31.3h3.8L120.6,412.1z M112,400l-4.9-13.3
		c-0.2-0.4-0.3-1.1-0.5-2.1h-0.1c-0.1,0.9-0.3,1.6-0.5,2.1l-4.9,13.3H112z"/>
	<path id="XMLID_23_" class="st0" d="M147.7,412.1h-4.4l-5.2-8.8c-0.5-0.8-0.9-1.5-1.4-2.1c-0.5-0.6-0.9-1-1.4-1.4
		c-0.5-0.4-1-0.6-1.5-0.8s-1.2-0.3-1.8-0.3h-3V412h-3.7v-31.2h9.4c1.4,0,2.6,0.2,3.8,0.5c1.2,0.3,2.2,0.9,3,1.6
		c0.9,0.7,1.5,1.6,2,2.6s0.7,2.3,0.7,3.7c0,1.1-0.2,2.1-0.5,3c-0.3,0.9-0.8,1.7-1.4,2.4c-0.6,0.7-1.3,1.3-2.2,1.8
		c-0.9,0.5-1.8,0.9-2.9,1.2v0.1c0.5,0.2,1,0.5,1.4,0.8s0.8,0.7,1.1,1.1c0.3,0.4,0.7,0.9,1,1.4s0.7,1.1,1.1,1.8L147.7,412.1z
		 M128.9,384.1v11.4h5c0.9,0,1.8-0.1,2.5-0.4c0.7-0.3,1.5-0.7,2-1.2c0.6-0.5,1-1.1,1.3-1.9s0.5-1.6,0.5-2.5c0-1.7-0.5-3-1.6-3.9
		c-1.1-0.9-2.7-1.4-4.7-1.4L128.9,384.1L128.9,384.1z"/>
	<path id="XMLID_26_" class="st0" d="M168.6,412.1H152v-31.3h15.9v3.3h-12.2v10.4H167v3.3h-11.3v11h12.9L168.6,412.1L168.6,412.1z"
		/>
</g>
</svg>
