<?xml version="1.0" encoding="utf-8"?>
<!-- Generator: Adobe Illustrator 19.0.0, SVG Export Plug-In . SVG Version: 6.00 Build 0)  -->
<svg version="1.1" id="Layer_1" xmlns="http://www.w3.org/2000/svg" xmlns:xlink="http://www.w3.org/1999/xlink" x="0px" y="0px"
	 viewBox="0 0 500 500" style="enable-background:new 0 0 500 500;" xml:space="preserve">
<style type="text/css">
	.st0{fill:#F9F9F9;}
	.st1{fill:#FFFFFF;}
</style>
<path id="XMLID_14_" class="st0" d="M250,452.2c-78.5,0-146.6-44.8-180.1-110.2c-14.1-27.6-22.1-58.9-22.1-92s8-64.4,22.1-92
	C103.4,92.6,171.5,47.8,250,47.8S396.6,92.6,430.1,158h38.1C432.3,73,348.1,13.3,250,13.3S67.7,73,31.8,158
	c-12,28.3-18.5,59.4-18.5,92s6.6,63.7,18.5,92C67.7,427,151.9,486.7,250,486.7S432.3,427,468.2,342h-38.1
	C396.6,407.4,328.5,452.2,250,452.2z"/>
<path id="XMLID_17_" class="st1" d="M397.8,158.1C367,108.8,312.3,76,250,76s-117,33-147.8,82h43.9c25.4-29,62.5-46.7,103.8-46.7
	s78.4,18.1,103.8,46.8c21.7,24.5,34.8,56.7,34.8,91.9s-13.2,67.4-34.8,91.9c-25.4,28.7-62.5,46.8-103.8,46.8S171.6,371,146.2,342
	h-43.9c30.7,49,85.4,82,147.8,82s117-32.8,147.8-82.1c16.6-26.7,26.2-58.2,26.2-91.9S414.4,184.8,397.8,158.1z"/>
</svg>
