<?xml version="1.0" encoding="utf-8"?>
<!-- Generator: Adobe Illustrator 19.0.0, SVG Export Plug-In . SVG Version: 6.00 Build 0)  -->
<svg version="1.1" id="Layer_1" xmlns="http://www.w3.org/2000/svg" xmlns:xlink="http://www.w3.org/1999/xlink" x="0px" y="0px"
	 viewBox="0 0 320 100" style="enable-background:new 0 0 320 100;" xml:space="preserve">
<style type="text/css">
	.st0{fill:#FFFFFF;}
</style>
<path id="XMLID_14_" class="st0" d="M48,87.6c-15,0-28-8.3-34.4-20.8c-2.7-5.3-4.2-11.1-4.2-17.4s1.5-12.2,4.2-17.5
	C20,19.4,33,10.4,48,10.4S76,19,82.4,31h7.3C82.8,15,66.7,3.8,48,3.8S13.1,15.5,6.3,31.7C4,37.1,2.7,43.2,2.7,49.4S4,61.6,6.3,67
	C13.1,83.3,29.2,94.2,48,94.2S82.8,82,89.6,66h-7.3C76,80,63,87.6,48,87.6z"/>
<path id="XMLID_17_" class="st0" d="M76.2,32C70.3,22.5,59.9,15.8,48,15.8S25.6,23,19.7,31h8.4c4.9-6,11.9-8.5,19.8-8.5
	s15,3.7,19.8,9.2c4.1,4.7,6.7,10.9,6.7,17.7S71.9,62.3,67.8,67c-4.9,5.5-11.9,8.4-19.8,8.4S33,72,28.1,66h-8.4
	C25.6,76,36.1,82.2,48,82.2s22.4-6,28.2-15.4c3.2-5.1,5-11,5-17.4S79.4,37.1,76.2,32z"/>
<g id="XMLID_3_">
	<path id="XMLID_4_" class="st0" d="M121.3,64c-2.3,1.1-5.3,1.7-9,1.7c-4.8,0-8.6-1.4-11.3-4.2c-2.8-2.8-4.1-6.6-4.1-11.3
		c0-5,1.5-9.1,4.6-12.2c3.1-3.1,7.1-4.7,12-4.7c3.1,0,5.6,0.4,7.7,1.2v6.8c-2.1-1.3-4.5-1.9-7.2-1.9c-2.9,0-5.3,0.9-7.1,2.8
		c-1.8,1.8-2.7,4.4-2.7,7.5c0,3,0.9,5.4,2.6,7.2c1.7,1.8,4,2.7,6.9,2.7c2.8,0,5.3-0.7,7.6-2V64z"/>
	<path id="XMLID_6_" class="st0" d="M139.4,65.7c-4.5,0-8.1-1.5-11-4.4c-2.8-2.9-4.2-6.7-4.2-11.4c0-5,1.4-9,4.3-12
		c2.9-3.1,6.7-4.6,11.4-4.6c4.5,0,8.1,1.5,10.8,4.4s4.1,6.8,4.1,11.6c0,4.9-1.4,8.9-4.3,11.9S144,65.7,139.4,65.7z M139.7,39.3
		c-2.5,0-4.4,0.9-5.9,2.8c-1.5,1.9-2.2,4.3-2.2,7.4c0,3.1,0.7,5.6,2.2,7.4c1.5,1.8,3.4,2.7,5.7,2.7c2.4,0,4.4-0.9,5.8-2.6
		c1.4-1.8,2.1-4.2,2.1-7.3c0-3.2-0.7-5.8-2.1-7.6C144,40.2,142.1,39.3,139.7,39.3z"/>
	<path id="XMLID_9_" class="st0" d="M186.4,65.1h-8.1l-4.9-8.1c-0.4-0.6-0.7-1.2-1-1.6s-0.7-0.9-1-1.2c-0.3-0.3-0.7-0.6-1.1-0.8
		c-0.4-0.2-0.8-0.3-1.2-0.3h-1.9v12h-7.1V33.8h11.2c7.6,0,11.4,2.8,11.4,8.5c0,1.1-0.2,2.1-0.5,3s-0.8,1.8-1.4,2.5
		c-0.6,0.7-1.4,1.4-2.2,1.9c-0.9,0.5-1.8,1-2.9,1.3v0.1c0.5,0.1,0.9,0.4,1.4,0.7c0.4,0.3,0.9,0.7,1.3,1.1c0.4,0.4,0.8,0.9,1.2,1.4
		c0.4,0.5,0.7,1,1,1.5L186.4,65.1z M167.2,39.1v8.7h3.1c1.5,0,2.7-0.4,3.6-1.3c0.9-0.9,1.4-2,1.4-3.3c0-2.7-1.6-4.1-4.9-4.1H167.2z"
		/>
	<path id="XMLID_12_" class="st0" d="M208.1,65.1h-18.8V33.8h18.1v5.7h-11v7h10.2v5.7h-10.2v7.2h11.7V65.1z"/>
	<path id="XMLID_15_" class="st0" d="M235,63.8c-2.3,1.2-5.2,1.8-8.7,1.8c-4.5,0-8-1.4-10.7-4.3s-4-6.6-4-11.3c0-5,1.5-9.1,4.5-12.1
		c3-3.1,6.8-4.6,11.5-4.6c3,0,5.4,0.4,7.4,1.3v3.9c-2.2-1.3-4.7-1.9-7.4-1.9c-3.6,0-6.5,1.2-8.7,3.6c-2.2,2.4-3.4,5.6-3.4,9.6
		c0,3.8,1,6.9,3.1,9.1s4.8,3.4,8.2,3.4c3.1,0,5.9-0.7,8.2-2.1V63.8z"/>
	<path id="XMLID_20_" class="st0" d="M265.6,65.1h-4.1l-3.3-8.8h-13.3l-3.1,8.8h-4.1l12-31.3h3.8L265.6,65.1z M257,53l-4.9-13.3
		c-0.2-0.4-0.3-1.1-0.5-2.1h-0.1c-0.1,0.9-0.3,1.6-0.5,2.1L246.1,53H257z"/>
	<path id="XMLID_23_" class="st0" d="M292.7,65.1h-4.4l-5.2-8.8c-0.5-0.8-0.9-1.5-1.4-2.1s-0.9-1-1.4-1.4c-0.5-0.4-1-0.6-1.5-0.8
		s-1.2-0.3-1.8-0.3h-3v13.3h-3.7V33.8h9.4c1.4,0,2.6,0.2,3.8,0.5c1.2,0.3,2.2,0.9,3,1.6c0.9,0.7,1.5,1.6,2,2.6
		c0.5,1,0.7,2.3,0.7,3.7c0,1.1-0.2,2.1-0.5,3c-0.3,0.9-0.8,1.7-1.4,2.4c-0.6,0.7-1.3,1.3-2.2,1.8c-0.9,0.5-1.8,0.9-2.9,1.2v0.1
		c0.5,0.2,1,0.5,1.4,0.8s0.8,0.7,1.1,1.1c0.3,0.4,0.7,0.9,1,1.4c0.3,0.5,0.7,1.1,1.1,1.8L292.7,65.1z M273.9,37.1v11.4h5
		c0.9,0,1.8-0.1,2.5-0.4s1.5-0.7,2-1.2c0.6-0.5,1-1.1,1.3-1.9c0.3-0.8,0.5-1.6,0.5-2.5c0-1.7-0.5-3-1.6-3.9s-2.7-1.4-4.7-1.4H273.9z
		"/>
	<path id="XMLID_26_" class="st0" d="M313.6,65.1H297V33.8h15.9v3.3h-12.2v10.4h11.3v3.3h-11.3v11h12.9V65.1z"/>
</g>
</svg>
