<?xml version="1.0" encoding="utf-8"?>
<!-- Generator: Adobe Illustrator 19.0.0, SVG Export Plug-In . SVG Version: 6.00 Build 0)  -->
<svg version="1.1" id="Layer_1" xmlns="http://www.w3.org/2000/svg" xmlns:xlink="http://www.w3.org/1999/xlink" x="0px" y="0px"
	 viewBox="-55 147 500 500" style="enable-background:new -55 147 500 500;" xml:space="preserve">
<style type="text/css">
	.st0{fill:#FF385C;}
</style>
<path id="XMLID_14_" class="st0" d="M195,599.2c-78.5,0-146.6-44.8-180.1-110.2C0.8,461.4-7.2,430.1-7.2,397s8-64.4,22.1-92
	C48.4,239.6,116.5,194.8,195,194.8S341.6,239.6,375.1,305h38.1C377.3,220,293.1,160.3,195,160.3S12.7,220-23.2,305
	c-12,28.3-18.5,59.4-18.5,92s6.6,63.7,18.5,92C12.7,574,96.9,633.7,195,633.7S377.3,574,413.2,489h-38.1
	C341.6,554.4,273.5,599.2,195,599.2z"/>
<path id="XMLID_17_" class="st0" d="M342.8,305.1C312,255.8,257.3,223,195,223S78,256,47.2,305h43.9c25.4-29,62.5-46.7,103.8-46.7
	s78.4,18.1,103.8,46.8c21.7,24.5,34.8,56.7,34.8,91.9s-13.2,67.4-34.8,91.9c-25.4,28.7-62.5,46.8-103.8,46.8S116.6,518,91.2,489
	H47.3c30.7,49,85.4,82,147.8,82s117-32.8,147.8-82.1c16.6-26.7,26.2-58.2,26.2-91.9S359.4,331.8,342.8,305.1z"/>
</svg>
