<?xml version="1.0" standalone="no"?>
<!DOCTYPE svg PUBLIC "-//W3C//DTD SVG 20010904//EN"
 "http://www.w3.org/TR/2001/REC-SVG-20010904/DTD/svg10.dtd">
<svg version="1.0" xmlns="http://www.w3.org/2000/svg"
 width="700.000000pt" height="700.000000pt" viewBox="0 0 700.000000 700.000000"
 preserveAspectRatio="xMidYMid meet">
<metadata>
Created by potrace 1.14, written by Peter Selinger 2001-2017
</metadata>
<g transform="translate(0.000000,700.000000) scale(0.100000,-0.100000)"
fill="#000000" stroke="none">
<path d="M3407 6814 c-1 -1 -54 -5 -117 -9 -132 -8 -161 -10 -221 -19 -62 -10
-232 -38 -244 -41 -5 -1 -23 -5 -40 -9 -16 -4 -66 -17 -110 -27 -437 -108
-881 -331 -1250 -626 -133 -106 -375 -344 -478 -469 -332 -406 -565 -877 -676
-1369 -31 -137 -34 -151 -56 -310 -32 -235 -37 -584 -10 -785 2 -19 7 -60 10
-90 4 -30 15 -102 26 -160 103 -549 328 -1040 675 -1475 92 -115 353 -383 439
-451 27 -21 57 -45 65 -53 37 -36 216 -163 330 -234 222 -139 609 -315 800
-363 8 -2 49 -12 90 -24 41 -11 109 -27 150 -36 41 -9 84 -18 95 -20 44 -10
214 -33 280 -39 39 -4 81 -9 95 -11 33 -6 422 -6 480 0 25 3 72 8 105 11 295
27 678 125 943 241 420 183 744 404 1057 718 199 200 333 367 468 583 70 112
244 449 236 458 -4 4 -252 7 -451 6 l-76 -1 -33 -58 c-17 -31 -41 -73 -52 -92
-41 -75 -151 -231 -234 -336 -135 -168 -295 -323 -503 -488 -161 -127 -445
-284 -686 -379 -155 -61 -425 -133 -569 -153 -27 -3 -59 -8 -70 -10 -65 -12
-186 -19 -370 -19 -257 0 -323 6 -575 52 -117 21 -305 77 -455 136 -495 193
-932 527 -1248 952 -182 245 -327 526 -417 805 -29 90 -73 255 -83 310 -8 43
-26 144 -31 175 -28 162 -29 573 -1 777 6 49 21 134 30 178 3 14 7 34 9 45 2
11 14 56 25 100 12 44 23 88 26 97 34 146 174 463 286 650 59 99 186 281 239
342 210 246 394 410 650 578 368 242 814 400 1260 445 97 10 462 10 563 0 403
-40 820 -178 1170 -388 338 -203 635 -481 868 -809 51 -73 169 -265 169 -277
0 -4 8 -18 18 -31 17 -23 19 -23 276 -23 142 0 260 2 264 5 9 10 -153 327
-229 448 -151 240 -273 393 -479 598 -170 171 -313 289 -493 411 -64 43 -119
79 -121 79 -2 0 -33 18 -68 39 -174 106 -482 241 -683 299 -189 56 -420 105
-545 117 -36 4 -70 8 -77 10 -25 8 -438 25 -446 19z"/>
<path d="M3325 5929 c-108 -8 -192 -19 -240 -29 -22 -5 -57 -11 -78 -14 -90
-14 -290 -76 -432 -134 -439 -179 -814 -485 -1098 -894 l-47 -68 308 0 308 0
66 68 c165 168 338 294 538 390 75 35 196 85 240 98 234 68 431 97 640 93 80
-2 165 -6 190 -10 25 -4 68 -10 95 -13 28 -4 66 -11 85 -16 19 -5 44 -11 55
-13 211 -40 535 -197 749 -366 60 -47 230 -212 276 -267 207 -250 361 -564
416 -849 4 -22 9 -47 11 -55 28 -129 37 -420 17 -582 -52 -427 -242 -822 -542
-1125 -53 -54 -113 -111 -132 -127 -286 -233 -571 -365 -935 -432 -172 -32
-475 -27 -695 11 -206 36 -486 149 -674 272 -59 38 -196 141 -216 162 -3 4
-46 45 -96 94 l-90 87 -298 1 c-164 0 -300 -2 -303 -5 -7 -7 68 -116 156 -226
323 -405 763 -693 1276 -833 50 -14 108 -28 130 -33 22 -4 42 -8 45 -9 3 -1
30 -5 60 -9 30 -5 64 -10 75 -12 120 -23 478 -22 633 0 18 3 52 8 75 11 205
30 437 103 652 205 493 233 893 627 1139 1123 90 182 177 431 202 577 3 14 9
48 14 75 10 49 14 82 27 195 8 78 9 350 1 445 -6 69 -22 173 -43 290 -25 135
-94 339 -174 515 -115 251 -277 485 -475 685 -114 115 -291 266 -346 295 -14
7 -27 16 -30 19 -9 12 -139 91 -149 91 -5 0 -11 4 -13 9 -4 10 -212 111 -310
150 -328 129 -716 187 -1063 160z"/>
</g>
</svg>
