<?xml version="1.0" standalone="no"?>
<!DOCTYPE svg PUBLIC "-//W3C//DTD SVG 1.1//EN" "http://www.w3.org/Graphics/SVG/1.1/DTD/svg11.dtd" >
<svg xmlns="http://www.w3.org/2000/svg" xmlns:xlink="http://www.w3.org/1999/xlink" version="1.1">
<metadata>
Created by FontForge 20170731 at Wed Apr 11 22:12:29 2018
 By Aleksey,,,
Copyright (c) 2017 by Kastelov. All rights reserved.
</metadata>
<defs>
<font id="Axiforma-Light" horiz-adv-x="0" >
  <font-face 
    font-family="Axiforma-Light"
    font-weight="400"
    font-stretch="normal"
    units-per-em="1000"
    panose-1="0 0 4 0 0 0 0 0 0 0"
    ascent="771"
    descent="-229"
    x-height="534"
    cap-height="739"
    bbox="-88 -228 993 825"
    underline-thickness="50"
    underline-position="-150"
    unicode-range="U+0020-201D"
  />
<missing-glyph horiz-adv-x="130" 
 />
    <glyph glyph-name="f_b" unicode="fb" 
 />
    <glyph glyph-name="f_f" unicode="ff" 
 />
    <glyph glyph-name="f_f_i" unicode="ffi" 
 />
    <glyph glyph-name="f_f_j" unicode="ffj" 
 />
    <glyph glyph-name="f_h" unicode="fh" 
 />
    <glyph glyph-name="f_i" unicode="fi" 
 />
    <glyph glyph-name="f_j" unicode="fj" 
 />
    <glyph glyph-name="f_k" unicode="fk" 
 />
    <glyph glyph-name="f_l" unicode="fl" 
 />
    <glyph glyph-name=".notdef" horiz-adv-x="130" 
 />
    <glyph glyph-name=".null" 
 />
    <glyph glyph-name="nonmarkingreturn" horiz-adv-x="333" 
 />
    <glyph glyph-name="space" unicode=" " horiz-adv-x="247" 
 />
    <glyph glyph-name="quotesingle" unicode="'" horiz-adv-x="232" 
d="M49 449l85 290h71l-103 -290h-53z" />
    <glyph glyph-name="parenleft" unicode="(" horiz-adv-x="369" 
d="M337 -220q-139 76 -215.5 211t-76.5 303q0 169 76.5 303.5t215.5 211.5l27 -46q-125 -75 -191 -196t-66 -273t66.5 -273t190.5 -195z" />
    <glyph glyph-name="parenright" unicode=")" horiz-adv-x="369" 
d="M31 -220l-26 46q124 74 190 195t66 273t-66 273t-190 196l26 46q140 -77 216.5 -211.5t76.5 -303.5q0 -168 -76.5 -303t-216.5 -211z" />
    <glyph glyph-name="asterisk" unicode="*" horiz-adv-x="441" 
d="M124 405l-39 31l98 114l-135 62l21 44l129 -61l-2 149h50l-2 -149l129 61l20 -44l-135 -62l98 -114l-39 -31l-96 120z" />
    <glyph glyph-name="plus" unicode="+" horiz-adv-x="513" 
d="M476 371v-56h-191v-191h-56v191h-191v56h191v192h56v-192h191z" />
    <glyph glyph-name="comma" unicode="," horiz-adv-x="224" 
d="M116 79q23 0 38 -17t15 -42q0 -76 -105 -142l-19 27q66 46 79 84q-9 -4 -17 -4q-17 0 -30 13.5t-13 31.5q0 20 15 34.5t37 14.5z" />
    <glyph glyph-name="hyphen" unicode="-" horiz-adv-x="523" 
d="M71 249v56h382v-56h-382z" />
    <glyph glyph-name="period" unicode="." horiz-adv-x="219" 
d="M110 -16q-21 0 -35 14t-14 34t14 33.5t35 13.5q20 0 34 -13.5t14 -33.5q0 -21 -14 -34.5t-34 -13.5z" />
    <glyph glyph-name="zero" unicode="0" horiz-adv-x="663" 
d="M331 -12q-73 0 -128.5 34.5t-86.5 92t-45.5 122t-14.5 133.5t14.5 133.5t45.5 122t86.5 92t128.5 34.5q74 0 129.5 -34.5t86 -92t45 -121.5t14.5 -134t-14.5 -134t-45 -121.5t-86 -92t-129.5 -34.5zM331 45q102 0 157.5 89t55.5 236q0 146 -55.5 235.5t-157.5 89.5
q-101 0 -156.5 -89.5t-55.5 -235.5t55.5 -235.5t156.5 -89.5z" />
    <glyph glyph-name="one" unicode="1" horiz-adv-x="369" 
d="M220 739h48v-739h-62v653l-161 -136l-36 43z" />
    <glyph glyph-name="three" unicode="3" horiz-adv-x="542" 
d="M245 -12q-117 0 -215 75l31 49q90 -67 184 -67q80 0 128.5 43t48.5 111q0 67 -45.5 109t-136.5 42h-79v55h73q85 0 129 44t44 104q0 63 -43.5 102.5t-112.5 39.5q-99 0 -173 -73l-34 42q37 40 93.5 64t115.5 24q97 0 156.5 -56t59.5 -138q0 -62 -35 -109.5t-91 -65.5v-4
q65 -15 103 -64t38 -117q0 -91 -66.5 -150.5t-172.5 -59.5z" />
    <glyph glyph-name="four" unicode="4" horiz-adv-x="566" 
d="M525 253v-56h-83v-197h-61v197h-357l-10 38l391 504h37v-486h83zM97 253h284v365z" />
    <glyph glyph-name="five" unicode="5" horiz-adv-x="559" 
d="M281 474q101 0 168 -66t67 -173q0 -110 -71.5 -178.5t-180.5 -68.5q-120 0 -222 91l33 46q88 -80 187 -80q84 0 138 53t54 137q0 82 -50 132t-128 50q-94 0 -157 -78l-44 22l38 378h353v-55h-302l-28 -259q58 49 145 49z" />
    <glyph glyph-name="six" unicode="6" horiz-adv-x="601" 
d="M315 -9q-125 0 -192 100.5t-67 256.5q0 78 17.5 148.5t52 128.5t91.5 92.5t129 34.5q104 0 178 -61l-28 -46q-65 52 -147 52q-64 0 -112.5 -35t-74.5 -91t-37.5 -119t-8.5 -126h3q16 65 75 108t132 43q98 0 164 -68t66 -172q0 -106 -68 -176t-173 -70zM319 47
q74 0 125.5 54.5t51.5 135.5q0 80 -50.5 132.5t-125.5 52.5t-129.5 -54.5t-54.5 -131.5q0 -76 53 -132.5t130 -56.5z" />
    <glyph glyph-name="eight" unicode="8" horiz-adv-x="609" 
d="M305 -12q-111 0 -181.5 60t-70.5 149q0 66 40.5 119.5t112.5 73.5v2q-61 25 -92.5 71t-31.5 99q0 81 62.5 135.5t160.5 54.5q97 0 159 -54.5t62 -135.5q0 -54 -32 -100.5t-92 -69.5v-3q72 -20 113 -73t41 -119q0 -89 -70.5 -149t-180.5 -60zM304 416q78 0 121 43.5
t43 99.5q0 58 -45.5 98.5t-117.5 40.5q-73 0 -118.5 -40.5t-45.5 -98.5q0 -56 43 -99.5t120 -43.5zM305 43q84 0 137.5 45.5t53.5 114.5q0 64 -49 111.5t-142 47.5t-143 -47.5t-50 -112.5q0 -68 54.5 -113.5t138.5 -45.5z" />
    <glyph glyph-name="A" unicode="A" horiz-adv-x="652" 
d="M569 0l-88 224h-311l-88 -224h-67l295 739h33l293 -739h-67zM326 630l-136 -349h271z" />
    <glyph glyph-name="C" unicode="C" horiz-adv-x="785" 
d="M430 -11q-159 0 -269 106t-110 272q0 168 111.5 276.5t269.5 108.5q101 0 188 -45.5t133 -118.5l-47 -35q-41 63 -114.5 101.5t-159.5 38.5q-136 0 -227.5 -92t-91.5 -233q0 -140 90.5 -230.5t227.5 -90.5q84 0 157 36.5t121 100.5l44 -36q-53 -72 -137.5 -115.5
t-185.5 -43.5z" />
    <glyph glyph-name="I" unicode="I" horiz-adv-x="263" 
d="M101 739h61v-739h-61v739z" />
    <glyph glyph-name="P" unicode="P" horiz-adv-x="598" 
d="M329 739q115 0 175.5 -67t60.5 -159q0 -93 -63.5 -159.5t-181.5 -66.5h-158v-287h-61v739h228zM321 344q85 0 133.5 48.5t48.5 121.5t-46 120t-125 47h-170v-337h159z" />
    <glyph glyph-name="T" unicode="T" horiz-adv-x="539" 
d="M239 680h-224v59h509v-59h-224v-680h-61v680z" />
    <glyph glyph-name="U" unicode="U" horiz-adv-x="685" 
d="M343 -13q-113 0 -181.5 67.5t-68.5 185.5v499h61v-489q0 -96 49.5 -149t139.5 -53q89 0 138.5 53.5t49.5 148.5v489h61v-499q0 -118 -68 -185.5t-181 -67.5z" />
    <glyph glyph-name="W" unicode="W" horiz-adv-x="1010" 
d="M263 0l-247 739h62l201 -618l212 618h27l215 -617l199 617h61l-245 -739h-30l-213 622l-212 -622h-30z" />
    <glyph glyph-name="bracketleft" unicode="[" horiz-adv-x="360" 
d="M95 -227v1038h254v-51h-193v-936h193v-51h-254z" />
    <glyph glyph-name="backslash" unicode="\" horiz-adv-x="571" 
d="M550 -123h-57l-471 948h57z" />
    <glyph glyph-name="bracketright" unicode="]" horiz-adv-x="360" 
d="M11 -227v51h193v936h-193v51h254v-1038h-254z" />
    <glyph glyph-name="asciicircum" unicode="^" horiz-adv-x="504" 
d="M46 431l193 308h27l192 -308h-62l-144 237l-143 -237h-63z" />
    <glyph glyph-name="underscore" unicode="_" horiz-adv-x="575" 
d="M0 -141v55h575v-55h-575z" />
    <glyph glyph-name="grave" unicode="`" horiz-adv-x="426" 
d="M186 620h-51l-85 160h77z" />
    <glyph glyph-name="a" unicode="a" horiz-adv-x="662" 
d="M522 535h58v-535h-58v104q-34 -55 -89 -86t-122 -31q-114 0 -190 81.5t-76 201.5q0 119 75.5 198.5t190.5 79.5q67 0 122 -30.5t89 -85.5v103zM314 42q93 0 153 66t60 162q0 93 -60 158t-153 65q-92 0 -150.5 -65t-58.5 -160q0 -96 58.5 -161t150.5 -65z" />
    <glyph glyph-name="b" unicode="b" horiz-adv-x="665" 
d="M355 547q113 0 189 -81t76 -199t-76 -199.5t-190 -81.5q-69 0 -124.5 32t-88.5 89v-107h-60v755h60v-328q34 57 89.5 88.5t124.5 31.5zM351 43q91 0 149.5 64.5t58.5 159.5t-58 159.5t-150 64.5q-93 0 -152.5 -64.5t-59.5 -157.5q0 -95 59.5 -160.5t152.5 -65.5z" />
    <glyph glyph-name="c" unicode="c" horiz-adv-x="595" 
d="M319 -12q-119 0 -196 78.5t-77 200.5q0 123 78.5 202t200.5 79q79 0 143.5 -37t95.5 -101l-49 -28q-27 51 -78 81t-112 30q-95 0 -157 -63.5t-62 -162.5q0 -98 60 -161t153 -63q61 0 114 31t79 80l49 -30q-32 -62 -98 -99t-144 -37z" />
    <glyph glyph-name="d" unicode="d" horiz-adv-x="665" 
d="M523 755h60v-755h-60v104q-34 -56 -89 -87t-123 -31q-114 0 -190 81.5t-76 199.5t76 199t190 81q68 0 123 -31t89 -86v325zM314 42q93 0 153 66t60 161q0 93 -60 158t-153 65q-92 0 -150.5 -65t-58.5 -160t58.5 -160t150.5 -65z" />
    <glyph glyph-name="e" unicode="e" horiz-adv-x="604" 
d="M561 291q0 -11 -3 -47h-450q7 -89 63 -144.5t154 -55.5q52 0 106 17.5t90 46.5l28 -46q-39 -31 -99 -52.5t-126 -21.5q-71 0 -126 24t-87.5 64.5t-48.5 89.5t-16 103q0 121 73 200t193 79q108 0 178.5 -69.5t70.5 -187.5zM312 493q-84 0 -139.5 -53t-64.5 -141h391
q-1 89 -53 141.5t-134 52.5z" />
    <glyph glyph-name="f" unicode="f" horiz-adv-x="382" 
d="M307 712q-62 0 -95.5 -35t-33.5 -100v-42h200v-53h-200v-482h-60v482h-94v53h94v43q0 90 50.5 140t134.5 50q62 0 115 -29l-21 -49q-45 22 -90 22z" />
    <glyph glyph-name="g" unicode="g" horiz-adv-x="663" 
d="M522 535h60v-488q0 -127 -74.5 -200.5t-202.5 -73.5q-127 0 -230 76l31 48q91 -69 200 -69q100 0 158 57.5t58 155.5v69q-34 -53 -89 -82.5t-121 -29.5q-114 0 -190.5 79.5t-76.5 195.5t77 195.5t191 79.5q66 0 120.5 -28.5t88.5 -80.5v96zM314 53q92 0 152.5 64
t60.5 158q0 92 -60.5 155t-152.5 63q-91 0 -150 -63t-59 -157t59 -157t150 -63z" />
    <glyph glyph-name="h" unicode="h" horiz-adv-x="611" 
d="M81 0v755h58v-310q24 50 72.5 77t112.5 27q91 0 151.5 -59t60.5 -167v-323h-60v313q0 84 -42.5 132t-116.5 48q-70 0 -123 -48t-53 -144v-301h-60z" />
    <glyph glyph-name="i" unicode="i" horiz-adv-x="223" 
d="M109 619q-22 0 -37 14.5t-15 36.5t15 37t37 15q21 0 36 -15t15 -37t-15 -36.5t-36 -14.5zM138 0h-60v535h60v-535z" />
    <glyph glyph-name="j" unicode="j" horiz-adv-x="247" 
d="M136 619q-22 0 -37 14.5t-15 36.5t15 37t37 15q21 0 36 -15t15 -37t-15 -36.5t-36 -14.5zM7 -228q-57 0 -95 23l15 51q45 -19 76 -19q50 0 76 31.5t26 88.5v588h60v-584q0 -87 -42.5 -133t-115.5 -46z" />
    <glyph glyph-name="k" unicode="k" horiz-adv-x="508" 
d="M434 0l-230 279l-63 -56v-223h-60v755h60v-459l267 239h81l-243 -218l266 -317h-78z" />
    <glyph glyph-name="l" unicode="l" horiz-adv-x="223" 
d="M141 0h-60v755h60v-755z" />
    <glyph glyph-name="m" unicode="m" horiz-adv-x="954" 
d="M675 549q90 0 147.5 -57t57.5 -159v-333h-60v328q0 77 -40 121t-107 44q-63 0 -112.5 -44t-49.5 -129v-320h-60v321q0 79 -39.5 125.5t-106.5 46.5q-65 0 -114.5 -47t-49.5 -145v-301h-60v535h59v-90q22 49 67 76.5t102 27.5q58 0 105 -30t69 -86q25 56 77.5 86t114.5 30
z" />
    <glyph glyph-name="n" unicode="n" horiz-adv-x="612" 
d="M81 0v535h58v-94q24 53 72.5 80.5t113.5 27.5q90 0 151 -59t61 -167v-323h-60v312q0 84 -42.5 132.5t-116.5 48.5q-70 0 -123.5 -48.5t-53.5 -144.5v-300h-60z" />
    <glyph glyph-name="o" unicode="o" horiz-adv-x="646" 
d="M323 -13q-120 0 -199 81t-79 200q0 118 79 199t199 81t199 -81t79 -199q0 -119 -79 -200t-199 -81zM323 42q94 0 156 65.5t62 160.5t-62 160t-156 65q-93 0 -155.5 -65.5t-62.5 -159.5q0 -95 62.5 -160.5t155.5 -65.5z" />
    <glyph glyph-name="p" unicode="p" horiz-adv-x="666" 
d="M355 549q114 0 190 -81.5t76 -199.5t-76 -199t-190 -81q-69 0 -124.5 31.5t-89.5 87.5v-327h-60v755h60v-109q34 58 89.5 90.5t124.5 32.5zM352 43q92 0 150.5 65t58.5 160t-58.5 160t-150.5 65q-93 0 -153 -66t-60 -161q0 -93 60 -158t153 -65z" />
    <glyph glyph-name="q" unicode="q" horiz-adv-x="666" 
d="M524 535h60v-755h-60v325q-34 -55 -89.5 -86t-123.5 -31q-114 0 -190 81t-76 199t76 199.5t190 81.5q68 0 123.5 -32t89.5 -89v107zM314 43q93 0 153 65t60 158q0 95 -60 161t-153 66q-91 0 -150 -65t-59 -160t58.5 -160t150.5 -65z" />
    <glyph glyph-name="r" unicode="r" horiz-adv-x="366" 
d="M81 0v535h57v-86q43 100 155 100q31 0 66 -9l-7 -57q-28 9 -57 9q-73 0 -113.5 -52t-40.5 -135v-305h-60z" />
    <glyph glyph-name="s" unicode="s" horiz-adv-x="442" 
d="M220 -12q-59 0 -109.5 29t-79.5 88l48 30q47 -93 141 -93q54 0 88 30t34 71q0 53 -68 87q-18 9 -64 27.5t-64 28.5q-85 44 -85 125q0 61 44.5 101.5t119.5 40.5q110 0 161 -84l-42 -34q-38 65 -120 65q-50 0 -77.5 -24.5t-27.5 -62.5q0 -52 58 -81q14 -6 60.5 -25.5
t70.5 -31.5q46 -22 70 -52t24 -76q0 -67 -51 -113t-131 -46z" />
    <glyph glyph-name="t" unicode="t" horiz-adv-x="414" 
d="M386 80l25 -46q-58 -46 -142 -46q-80 0 -120.5 49.5t-40.5 137.5v307h-95v53h96v189h59v-189h220v-53h-220v-309q0 -130 106 -130q61 0 112 37z" />
    <glyph glyph-name="u" unicode="u" horiz-adv-x="585" 
d="M292 -13q-99 0 -158.5 60.5t-59.5 161.5v326h60v-325q0 -77 42.5 -122t115.5 -45q75 0 117 45t42 123v324h60v-326q0 -102 -58.5 -162t-160.5 -60z" />
    <glyph glyph-name="v" unicode="v" horiz-adv-x="539" 
d="M458 535h66l-236 -534h-37l-236 534h66l189 -442z" />
    <glyph glyph-name="w" unicode="w" horiz-adv-x="814" 
d="M204 1l-188 534h62l149 -440l160 440l40 -1l162 -439l146 440h63l-187 -534h-42l-162 449l-161 -449h-42z" />
    <glyph glyph-name="x" unicode="x" horiz-adv-x="474" 
d="M456 0h-70l-150 225l-151 -225h-72l189 276l-174 259h71l139 -212l143 212h71l-180 -262z" />
    <glyph glyph-name="y" unicode="y" horiz-adv-x="531" 
d="M449 535h66l-226 -575q-40 -102 -81 -144.5t-102 -42.5q-42 0 -77 19l9 53q36 -16 66 -16q42 0 72 34.5t56 102.5l13 34l-228 535h66l191 -457z" />
    <glyph glyph-name="z" unicode="z" horiz-adv-x="477" 
d="M106 53h341v-53h-419v41l330 440h-312v53h386v-43z" />
    <glyph glyph-name="quoteright" unicode="&#x2019;" horiz-adv-x="218" 
d="M124 752q23 0 38 -17t15 -42q0 -76 -105 -142l-19 27q66 46 79 84q-9 -4 -17 -4q-17 0 -30 13t-13 32q0 20 15 34.5t37 14.5z" />
    <glyph glyph-name="quotesinglbase" unicode="&#x201a;" horiz-adv-x="224" 
d="M116 79q23 0 38 -17t15 -42q0 -76 -105 -142l-19 27q66 46 79 84q-9 -4 -17 -4q-17 0 -30 13t-13 32q0 20 15 34.5t37 14.5z" />
    <glyph glyph-name="quotedblleft" unicode="&#x201c;" horiz-adv-x="419" 
d="M185 727q-66 -44 -79 -84q9 4 17 4q17 0 30 -13t13 -31q0 -21 -15 -35t-37 -14q-23 0 -38 16.5t-15 42.5q0 76 105 142zM320 647q18 0 30.5 -12.5t12.5 -31.5q0 -21 -14.5 -35t-36.5 -14q-23 0 -38.5 16.5t-15.5 42.5q0 76 105 142l19 -28q-64 -44 -79 -84q9 4 17 4z" />
    <glyph glyph-name="quotedblright" unicode="&#x201d;" horiz-adv-x="413" 
d="M115 754q23 0 38 -16.5t15 -42.5q0 -76 -105 -142l-19 28q66 44 79 84q-9 -4 -17 -4q-17 0 -30 13t-13 31q0 21 15 35t37 14zM310 754q23 0 38.5 -16.5t15.5 -42.5q0 -76 -106 -142l-19 28q65 43 80 84q-9 -4 -17 -4q-18 0 -30.5 12.5t-12.5 31.5q0 21 14.5 35t36.5 14z
" />
    <glyph glyph-name="CR" horiz-adv-x="130" 
 />
    <glyph glyph-name="exclam" 
 />
    <glyph glyph-name="quotedbl" 
 />
    <glyph glyph-name="numbersign" 
 />
    <glyph glyph-name="dollar" 
 />
    <glyph glyph-name="percent" 
 />
    <glyph glyph-name="ampersand" 
 />
    <glyph glyph-name="slash" 
 />
    <glyph glyph-name="two" 
 />
    <glyph glyph-name="seven" 
 />
    <glyph glyph-name="nine" 
 />
    <glyph glyph-name="colon" 
 />
    <glyph glyph-name="semicolon" 
 />
    <glyph glyph-name="less" 
 />
    <glyph glyph-name="equal" 
 />
    <glyph glyph-name="greater" 
 />
    <glyph glyph-name="question" 
 />
    <glyph glyph-name="at" 
 />
    <glyph glyph-name="B" 
 />
    <glyph glyph-name="D" 
 />
    <glyph glyph-name="E" 
 />
    <glyph glyph-name="F" 
 />
    <glyph glyph-name="G" 
 />
    <glyph glyph-name="H" 
 />
    <glyph glyph-name="J" 
 />
    <glyph glyph-name="K" 
 />
    <glyph glyph-name="L" 
 />
    <glyph glyph-name="M" 
 />
    <glyph glyph-name="N" 
 />
    <glyph glyph-name="O" 
 />
    <glyph glyph-name="Q" 
 />
    <glyph glyph-name="R" 
 />
    <glyph glyph-name="S" 
 />
    <glyph glyph-name="V" 
 />
    <glyph glyph-name="X" 
 />
    <glyph glyph-name="Y" 
 />
    <glyph glyph-name="Z" 
 />
    <glyph glyph-name="braceleft" 
 />
    <glyph glyph-name="bar" 
 />
    <glyph glyph-name="braceright" 
 />
    <glyph glyph-name="asciitilde" 
 />
    <glyph glyph-name="exclamdown" 
 />
    <glyph glyph-name="cent" 
 />
    <glyph glyph-name="sterling" 
 />
    <glyph glyph-name="currency" 
 />
    <glyph glyph-name="yen" 
 />
    <glyph glyph-name="brokenbar" 
 />
    <glyph glyph-name="section" 
 />
    <glyph glyph-name="dieresis" 
 />
    <glyph glyph-name="copyright" 
 />
    <glyph glyph-name="ordfeminine" 
 />
    <glyph glyph-name="guillemotleft" 
 />
    <glyph glyph-name="logicalnot" 
 />
    <glyph glyph-name="uni00AD" 
 />
    <glyph glyph-name="registered" 
 />
    <glyph glyph-name="macron" 
 />
    <glyph glyph-name="degree" 
 />
    <glyph glyph-name="plusminus" 
 />
    <glyph glyph-name="uni00B2" 
 />
    <glyph glyph-name="uni00B3" 
 />
    <glyph glyph-name="acute" 
 />
    <glyph glyph-name="paragraph" 
 />
    <glyph glyph-name="periodcentered" 
 />
    <glyph glyph-name="cedilla" 
 />
    <glyph glyph-name="uni00B9" 
 />
    <glyph glyph-name="ordmasculine" 
 />
    <glyph glyph-name="guillemotright" 
 />
    <glyph glyph-name="onequarter" 
 />
    <glyph glyph-name="onehalf" 
 />
    <glyph glyph-name="threequarters" 
 />
    <glyph glyph-name="questiondown" 
 />
    <glyph glyph-name="Agrave" 
 />
    <glyph glyph-name="Aacute" 
 />
    <glyph glyph-name="Acircumflex" 
 />
    <glyph glyph-name="Atilde" 
 />
    <glyph glyph-name="Adieresis" 
 />
    <glyph glyph-name="Aring" 
 />
    <glyph glyph-name="AE" 
 />
    <glyph glyph-name="Ccedilla" 
 />
    <glyph glyph-name="Egrave" 
 />
    <glyph glyph-name="Eacute" 
 />
    <glyph glyph-name="Ecircumflex" 
 />
    <glyph glyph-name="Edieresis" 
 />
    <glyph glyph-name="Igrave" 
 />
    <glyph glyph-name="Iacute" 
 />
    <glyph glyph-name="Icircumflex" 
 />
    <glyph glyph-name="Idieresis" 
 />
    <glyph glyph-name="Eth" 
 />
    <glyph glyph-name="Ntilde" 
 />
    <glyph glyph-name="Ograve" 
 />
    <glyph glyph-name="Oacute" 
 />
    <glyph glyph-name="Ocircumflex" 
 />
    <glyph glyph-name="Otilde" 
 />
    <glyph glyph-name="Odieresis" 
 />
    <glyph glyph-name="multiply" 
 />
    <glyph glyph-name="Oslash" 
 />
    <glyph glyph-name="Ugrave" 
 />
    <glyph glyph-name="Uacute" 
 />
    <glyph glyph-name="Ucircumflex" 
 />
    <glyph glyph-name="Udieresis" 
 />
    <glyph glyph-name="Yacute" 
 />
    <glyph glyph-name="Thorn" 
 />
    <glyph glyph-name="germandbls" 
 />
    <glyph glyph-name="agrave" 
 />
    <glyph glyph-name="aacute" 
 />
    <glyph glyph-name="acircumflex" 
 />
    <glyph glyph-name="atilde" 
 />
    <glyph glyph-name="adieresis" 
 />
    <glyph glyph-name="aring" 
 />
    <glyph glyph-name="ae" 
 />
    <glyph glyph-name="ccedilla" 
 />
    <glyph glyph-name="egrave" 
 />
    <glyph glyph-name="eacute" 
 />
    <glyph glyph-name="ecircumflex" 
 />
    <glyph glyph-name="edieresis" 
 />
    <glyph glyph-name="igrave" 
 />
    <glyph glyph-name="iacute" 
 />
    <glyph glyph-name="icircumflex" 
 />
    <glyph glyph-name="idieresis" 
 />
    <glyph glyph-name="eth" 
 />
    <glyph glyph-name="ntilde" 
 />
    <glyph glyph-name="ograve" 
 />
    <glyph glyph-name="oacute" 
 />
    <glyph glyph-name="ocircumflex" 
 />
    <glyph glyph-name="otilde" 
 />
    <glyph glyph-name="odieresis" 
 />
    <glyph glyph-name="divide" 
 />
    <glyph glyph-name="oslash" 
 />
    <glyph glyph-name="ugrave" 
 />
    <glyph glyph-name="uacute" 
 />
    <glyph glyph-name="ucircumflex" 
 />
    <glyph glyph-name="udieresis" 
 />
    <glyph glyph-name="yacute" 
 />
    <glyph glyph-name="thorn" 
 />
    <glyph glyph-name="ydieresis" 
 />
    <glyph glyph-name="Amacron" 
 />
    <glyph glyph-name="amacron" 
 />
    <glyph glyph-name="Abreve" 
 />
    <glyph glyph-name="abreve" 
 />
    <glyph glyph-name="Aogonek" 
 />
    <glyph glyph-name="aogonek" 
 />
    <glyph glyph-name="Cacute" 
 />
    <glyph glyph-name="cacute" 
 />
    <glyph glyph-name="Ccircumflex" 
 />
    <glyph glyph-name="ccircumflex" 
 />
    <glyph glyph-name="Cdotaccent" 
 />
    <glyph glyph-name="cdotaccent" 
 />
    <glyph glyph-name="Ccaron" 
 />
    <glyph glyph-name="ccaron" 
 />
    <glyph glyph-name="Dcaron" 
 />
    <glyph glyph-name="dcaron" 
 />
    <glyph glyph-name="Dcroat" 
 />
    <glyph glyph-name="dcroat" 
 />
    <glyph glyph-name="Emacron" 
 />
    <glyph glyph-name="emacron" 
 />
    <glyph glyph-name="Ebreve" 
 />
    <glyph glyph-name="ebreve" 
 />
    <glyph glyph-name="Edotaccent" 
 />
    <glyph glyph-name="edotaccent" 
 />
    <glyph glyph-name="Eogonek" 
 />
    <glyph glyph-name="eogonek" 
 />
    <glyph glyph-name="Ecaron" 
 />
    <glyph glyph-name="ecaron" 
 />
    <glyph glyph-name="Gcircumflex" 
 />
    <glyph glyph-name="gcircumflex" 
 />
    <glyph glyph-name="Gbreve" 
 />
    <glyph glyph-name="gbreve" 
 />
    <glyph glyph-name="Gdotaccent" 
 />
    <glyph glyph-name="gdotaccent" 
 />
    <glyph glyph-name="uni0122" 
 />
    <glyph glyph-name="uni0123" 
 />
    <glyph glyph-name="Hcircumflex" 
 />
    <glyph glyph-name="hcircumflex" 
 />
    <glyph glyph-name="Hbar" 
 />
    <glyph glyph-name="hbar" 
 />
    <glyph glyph-name="Itilde" 
 />
    <glyph glyph-name="itilde" 
 />
    <glyph glyph-name="Imacron" 
 />
    <glyph glyph-name="imacron" 
 />
    <glyph glyph-name="Ibreve" 
 />
    <glyph glyph-name="ibreve" 
 />
    <glyph glyph-name="Iogonek" 
 />
    <glyph glyph-name="iogonek" 
 />
    <glyph glyph-name="Idotaccent" 
 />
    <glyph glyph-name="dotlessi" 
 />
    <glyph glyph-name="IJ" 
 />
    <glyph glyph-name="ij" 
 />
    <glyph glyph-name="Jcircumflex" 
 />
    <glyph glyph-name="jcircumflex" 
 />
    <glyph glyph-name="uni0136" 
 />
    <glyph glyph-name="uni0137" 
 />
    <glyph glyph-name="kgreenlandic" 
 />
    <glyph glyph-name="Lacute" 
 />
    <glyph glyph-name="lacute" 
 />
    <glyph glyph-name="uni013B" 
 />
    <glyph glyph-name="uni013C" 
 />
    <glyph glyph-name="Lcaron" 
 />
    <glyph glyph-name="lcaron" 
 />
    <glyph glyph-name="Ldot" 
 />
    <glyph glyph-name="ldot" 
 />
    <glyph glyph-name="Lslash" 
 />
    <glyph glyph-name="lslash" 
 />
    <glyph glyph-name="Nacute" 
 />
    <glyph glyph-name="nacute" 
 />
    <glyph glyph-name="uni0145" 
 />
    <glyph glyph-name="uni0146" 
 />
    <glyph glyph-name="Ncaron" 
 />
    <glyph glyph-name="ncaron" 
 />
    <glyph glyph-name="napostrophe" 
 />
    <glyph glyph-name="Eng" 
 />
    <glyph glyph-name="eng" 
 />
    <glyph glyph-name="Omacron" 
 />
    <glyph glyph-name="omacron" 
 />
    <glyph glyph-name="Obreve" 
 />
    <glyph glyph-name="obreve" 
 />
    <glyph glyph-name="Ohungarumlaut" 
 />
    <glyph glyph-name="ohungarumlaut" 
 />
    <glyph glyph-name="OE" 
 />
    <glyph glyph-name="oe" 
 />
    <glyph glyph-name="Racute" 
 />
    <glyph glyph-name="racute" 
 />
    <glyph glyph-name="uni0156" 
 />
    <glyph glyph-name="uni0157" 
 />
    <glyph glyph-name="Rcaron" 
 />
    <glyph glyph-name="rcaron" 
 />
    <glyph glyph-name="Sacute" 
 />
    <glyph glyph-name="sacute" 
 />
    <glyph glyph-name="Scircumflex" 
 />
    <glyph glyph-name="scircumflex" 
 />
    <glyph glyph-name="Scedilla" 
 />
    <glyph glyph-name="scedilla" 
 />
    <glyph glyph-name="Scaron" 
 />
    <glyph glyph-name="scaron" 
 />
    <glyph glyph-name="Tcaron" 
 />
    <glyph glyph-name="tcaron" 
 />
    <glyph glyph-name="Tbar" 
 />
    <glyph glyph-name="tbar" 
 />
    <glyph glyph-name="Utilde" 
 />
    <glyph glyph-name="utilde" 
 />
    <glyph glyph-name="Umacron" 
 />
    <glyph glyph-name="umacron" 
 />
    <glyph glyph-name="Ubreve" 
 />
    <glyph glyph-name="ubreve" 
 />
    <glyph glyph-name="Uring" 
 />
    <glyph glyph-name="uring" 
 />
    <glyph glyph-name="Uhungarumlaut" 
 />
    <glyph glyph-name="uhungarumlaut" 
 />
    <glyph glyph-name="Uogonek" 
 />
    <glyph glyph-name="uogonek" 
 />
    <glyph glyph-name="Wcircumflex" 
 />
    <glyph glyph-name="wcircumflex" 
 />
    <glyph glyph-name="Ycircumflex" 
 />
    <glyph glyph-name="ycircumflex" 
 />
    <glyph glyph-name="Ydieresis" 
 />
    <glyph glyph-name="Zacute" 
 />
    <glyph glyph-name="zacute" 
 />
    <glyph glyph-name="Zdotaccent" 
 />
    <glyph glyph-name="zdotaccent" 
 />
    <glyph glyph-name="Zcaron" 
 />
    <glyph glyph-name="zcaron" 
 />
    <glyph glyph-name="uni0218" 
 />
    <glyph glyph-name="uni0219" 
 />
    <glyph glyph-name="uni021A" 
 />
    <glyph glyph-name="uni021B" 
 />
    <glyph glyph-name="uni0237" 
 />
    <glyph glyph-name="circumflex" 
 />
    <glyph glyph-name="caron" 
 />
    <glyph glyph-name="breve" 
 />
    <glyph glyph-name="dotaccent" 
 />
    <glyph glyph-name="ring" 
 />
    <glyph glyph-name="ogonek" 
 />
    <glyph glyph-name="tilde" 
 />
    <glyph glyph-name="hungarumlaut" 
 />
    <glyph glyph-name="uni0394" 
 />
    <glyph glyph-name="uni03A9" 
 />
    <glyph glyph-name="uni03BC" 
 />
    <glyph glyph-name="pi" 
 />
    <glyph glyph-name="uni0401" 
 />
    <glyph glyph-name="uni0410" 
 />
    <glyph glyph-name="uni0411" 
 />
    <glyph glyph-name="uni0412" 
 />
    <glyph glyph-name="uni0413" 
 />
    <glyph glyph-name="uni0414" 
 />
    <glyph glyph-name="uni0415" 
 />
    <glyph glyph-name="uni0416" 
 />
    <glyph glyph-name="uni0417" 
 />
    <glyph glyph-name="uni0418" 
 />
    <glyph glyph-name="uni0419" 
 />
    <glyph glyph-name="uni041A" 
 />
    <glyph glyph-name="uni041B" 
 />
    <glyph glyph-name="uni041C" 
 />
    <glyph glyph-name="uni041D" 
 />
    <glyph glyph-name="uni041E" 
 />
    <glyph glyph-name="uni041F" 
 />
    <glyph glyph-name="uni0420" 
 />
    <glyph glyph-name="uni0421" 
 />
    <glyph glyph-name="uni0422" 
 />
    <glyph glyph-name="uni0423" 
 />
    <glyph glyph-name="uni0424" 
 />
    <glyph glyph-name="uni0425" 
 />
    <glyph glyph-name="uni0426" 
 />
    <glyph glyph-name="uni0427" 
 />
    <glyph glyph-name="uni0428" 
 />
    <glyph glyph-name="uni0429" 
 />
    <glyph glyph-name="uni042A" 
 />
    <glyph glyph-name="uni042B" 
 />
    <glyph glyph-name="uni042C" 
 />
    <glyph glyph-name="uni042D" 
 />
    <glyph glyph-name="uni042E" 
 />
    <glyph glyph-name="uni042F" 
 />
    <glyph glyph-name="uni0430" 
 />
    <glyph glyph-name="uni0431" 
 />
    <glyph glyph-name="uni0432" 
 />
    <glyph glyph-name="uni0433" 
 />
    <glyph glyph-name="uni0434" 
 />
    <glyph glyph-name="uni0435" 
 />
    <glyph glyph-name="uni0436" 
 />
    <glyph glyph-name="uni0437" 
 />
    <glyph glyph-name="uni0438" 
 />
    <glyph glyph-name="uni0439" 
 />
    <glyph glyph-name="uni043A" 
 />
    <glyph glyph-name="uni043B" 
 />
    <glyph glyph-name="uni043C" 
 />
    <glyph glyph-name="uni043D" 
 />
    <glyph glyph-name="uni043E" 
 />
    <glyph glyph-name="uni043F" 
 />
    <glyph glyph-name="uni0440" 
 />
    <glyph glyph-name="uni0441" 
 />
    <glyph glyph-name="uni0442" 
 />
    <glyph glyph-name="uni0443" 
 />
    <glyph glyph-name="uni0444" 
 />
    <glyph glyph-name="uni0445" 
 />
    <glyph glyph-name="uni0446" 
 />
    <glyph glyph-name="uni0447" 
 />
    <glyph glyph-name="uni0448" 
 />
    <glyph glyph-name="uni0449" 
 />
    <glyph glyph-name="uni044A" 
 />
    <glyph glyph-name="uni044B" 
 />
    <glyph glyph-name="uni044C" 
 />
    <glyph glyph-name="uni044D" 
 />
    <glyph glyph-name="uni044E" 
 />
    <glyph glyph-name="uni044F" 
 />
    <glyph glyph-name="uni0451" 
 />
    <glyph glyph-name="Wgrave" 
 />
    <glyph glyph-name="wgrave" 
 />
    <glyph glyph-name="Wacute" 
 />
    <glyph glyph-name="wacute" 
 />
    <glyph glyph-name="Wdieresis" 
 />
    <glyph glyph-name="wdieresis" 
 />
    <glyph glyph-name="Ygrave" 
 />
    <glyph glyph-name="ygrave" 
 />
    <glyph glyph-name="uni2009" 
 />
    <glyph glyph-name="endash" 
 />
    <glyph glyph-name="emdash" 
 />
    <glyph glyph-name="quoteleft" 
 />
    <glyph glyph-name="quotedblbase" 
 />
    <glyph glyph-name="dagger" 
 />
    <glyph glyph-name="daggerdbl" 
 />
    <glyph glyph-name="bullet" 
 />
    <glyph glyph-name="ellipsis" 
 />
    <glyph glyph-name="perthousand" 
 />
    <glyph glyph-name="guilsinglleft" 
 />
    <glyph glyph-name="guilsinglright" 
 />
    <glyph glyph-name="fraction" 
 />
    <glyph glyph-name="uni2070" 
 />
    <glyph glyph-name="uni2074" 
 />
    <glyph glyph-name="uni2075" 
 />
    <glyph glyph-name="uni2076" 
 />
    <glyph glyph-name="uni2077" 
 />
    <glyph glyph-name="uni2078" 
 />
    <glyph glyph-name="uni2079" 
 />
    <glyph glyph-name="uni2080" 
 />
    <glyph glyph-name="uni2081" 
 />
    <glyph glyph-name="uni2082" 
 />
    <glyph glyph-name="uni2083" 
 />
    <glyph glyph-name="uni2084" 
 />
    <glyph glyph-name="uni2085" 
 />
    <glyph glyph-name="uni2086" 
 />
    <glyph glyph-name="uni2087" 
 />
    <glyph glyph-name="uni2088" 
 />
    <glyph glyph-name="uni2089" 
 />
    <glyph glyph-name="Euro" 
 />
    <glyph glyph-name="uni20BD" 
 />
    <glyph glyph-name="uni2116" 
 />
    <glyph glyph-name="trademark" 
 />
    <glyph glyph-name="estimated" 
 />
    <glyph glyph-name="uni2150" 
 />
    <glyph glyph-name="uni2151" 
 />
    <glyph glyph-name="uni2153" 
 />
    <glyph glyph-name="uni2154" 
 />
    <glyph glyph-name="uni2155" 
 />
    <glyph glyph-name="uni2156" 
 />
    <glyph glyph-name="uni2157" 
 />
    <glyph glyph-name="uni2158" 
 />
    <glyph glyph-name="uni2159" 
 />
    <glyph glyph-name="uni215A" 
 />
    <glyph glyph-name="oneeighth" 
 />
    <glyph glyph-name="threeeighths" 
 />
    <glyph glyph-name="fiveeighths" 
 />
    <glyph glyph-name="seveneighths" 
 />
    <glyph glyph-name="partialdiff" 
 />
    <glyph glyph-name="product" 
 />
    <glyph glyph-name="summation" 
 />
    <glyph glyph-name="minus" 
 />
    <glyph glyph-name="radical" 
 />
    <glyph glyph-name="infinity" 
 />
    <glyph glyph-name="integral" 
 />
    <glyph glyph-name="approxequal" 
 />
    <glyph glyph-name="notequal" 
 />
    <glyph glyph-name="lessequal" 
 />
    <glyph glyph-name="greaterequal" 
 />
    <glyph glyph-name="lozenge" 
 />
    <glyph glyph-name="uni00A40301" 
 />
    <glyph glyph-name="Iacute_J.loclNLD" 
 />
    <glyph glyph-name="J.loclNLD" 
 />
    <glyph glyph-name="i.loclTRK" 
 />
    <glyph glyph-name="uni006A0301" 
 />
    <glyph glyph-name="iacute_j.loclNLD" 
 />
    <glyph glyph-name="j.loclNLD" 
 />
    <glyph glyph-name="a.ss02" 
 />
    <glyph glyph-name="aacute.ss02" 
 />
    <glyph glyph-name="abreve.ss02" 
 />
    <glyph glyph-name="acircumflex.ss02" 
 />
    <glyph glyph-name="adieresis.ss02" 
 />
    <glyph glyph-name="agrave.ss02" 
 />
    <glyph glyph-name="amacron.ss02" 
 />
    <glyph glyph-name="aogonek.ss02" 
 />
    <glyph glyph-name="aring.ss02" 
 />
    <glyph glyph-name="atilde.ss02" 
 />
    <glyph glyph-name="I_J.loclNLD" 
 />
    <glyph glyph-name="i_j.loclNLD" 
 />
    <glyph glyph-name="uni0414.ss01" 
 />
    <glyph glyph-name="uni0416.ss01" 
 />
    <glyph glyph-name="uni041B.ss01" 
 />
    <glyph glyph-name="uni0424.ss01" 
 />
    <glyph glyph-name="uni042C.ss01" 
 />
    <glyph glyph-name="uni042A.ss01" 
 />
    <glyph glyph-name="uni0431.ss01" 
 />
    <glyph glyph-name="uni0432.ss01" 
 />
    <glyph glyph-name="uni0433.ss01" 
 />
    <glyph glyph-name="uni0434.ss01" 
 />
    <glyph glyph-name="uni0436.ss01" 
 />
    <glyph glyph-name="uni0437.ss01" 
 />
    <glyph glyph-name="uni0438.ss01" 
 />
    <glyph glyph-name="uni0439.ss01" 
 />
    <glyph glyph-name="uni043A.ss01" 
 />
    <glyph glyph-name="uni043B.ss01" 
 />
    <glyph glyph-name="uni043F.ss01" 
 />
    <glyph glyph-name="uni0442.ss01" 
 />
    <glyph glyph-name="uni0444.ss01" 
 />
    <glyph glyph-name="uni0446.ss01" 
 />
    <glyph glyph-name="uni0448.ss01" 
 />
    <glyph glyph-name="uni0449.ss01" 
 />
    <glyph glyph-name="uni044C.ss01" 
 />
    <glyph glyph-name="uni044A.ss01" 
 />
    <glyph glyph-name="uni044E.ss01" 
 />
    <glyph glyph-name="zero.lf" 
 />
    <glyph glyph-name="one.lf" 
 />
    <glyph glyph-name="two.lf" 
 />
    <glyph glyph-name="three.lf" 
 />
    <glyph glyph-name="four.lf" 
 />
    <glyph glyph-name="five.lf" 
 />
    <glyph glyph-name="six.lf" 
 />
    <glyph glyph-name="seven.lf" 
 />
    <glyph glyph-name="eight.lf" 
 />
    <glyph glyph-name="nine.lf" 
 />
    <glyph glyph-name="zero.num" 
 />
    <glyph glyph-name="one.num" 
 />
    <glyph glyph-name="two.num" 
 />
    <glyph glyph-name="three.num" 
 />
    <glyph glyph-name="four.num" 
 />
    <glyph glyph-name="five.num" 
 />
    <glyph glyph-name="six.num" 
 />
    <glyph glyph-name="seven.num" 
 />
    <glyph glyph-name="eight.num" 
 />
    <glyph glyph-name="nine.num" 
 />
    <glyph glyph-name="one.numalt" 
 />
    <glyph glyph-name="zero.osf" 
 />
    <glyph glyph-name="one.osf" 
 />
    <glyph glyph-name="two.osf" 
 />
    <glyph glyph-name="three.osf" 
 />
    <glyph glyph-name="four.osf" 
 />
    <glyph glyph-name="five.osf" 
 />
    <glyph glyph-name="six.osf" 
 />
    <glyph glyph-name="seven.osf" 
 />
    <glyph glyph-name="eight.osf" 
 />
    <glyph glyph-name="nine.osf" 
 />
    <glyph glyph-name="zero.slash" 
 />
    <glyph glyph-name="zero.tf" 
 />
    <glyph glyph-name="one.tf" 
 />
    <glyph glyph-name="two.tf" 
 />
    <glyph glyph-name="three.tf" 
 />
    <glyph glyph-name="four.tf" 
 />
    <glyph glyph-name="five.tf" 
 />
    <glyph glyph-name="six.tf" 
 />
    <glyph glyph-name="seven.tf" 
 />
    <glyph glyph-name="eight.tf" 
 />
    <glyph glyph-name="nine.tf" 
 />
    <glyph glyph-name="zero.dnom" 
 />
    <glyph glyph-name="one.dnom" 
 />
    <glyph glyph-name="two.dnom" 
 />
    <glyph glyph-name="three.dnom" 
 />
    <glyph glyph-name="four.dnom" 
 />
    <glyph glyph-name="five.dnom" 
 />
    <glyph glyph-name="six.dnom" 
 />
    <glyph glyph-name="seven.dnom" 
 />
    <glyph glyph-name="eight.dnom" 
 />
    <glyph glyph-name="nine.dnom" 
 />
    <glyph glyph-name="two_fraction_seven" 
 />
    <glyph glyph-name="three_fraction_seven" 
 />
    <glyph glyph-name="four_fraction_seven" 
 />
    <glyph glyph-name="five_fraction_seven" 
 />
    <glyph glyph-name="six_fraction_seven" 
 />
    <glyph glyph-name="two_fraction_nine" 
 />
    <glyph glyph-name="four_fraction_nine" 
 />
    <glyph glyph-name="five_fraction_nine" 
 />
    <glyph glyph-name="seven_fraction_nine" 
 />
    <glyph glyph-name="eight_fraction_nine" 
 />
    <glyph glyph-name="backslash.case" 
 />
    <glyph glyph-name="periodcentered.case" 
 />
    <glyph glyph-name="colon.case" 
 />
    <glyph glyph-name="exclamdown.case" 
 />
    <glyph glyph-name="questiondown.case" 
 />
    <glyph glyph-name="semicolon.case" 
 />
    <glyph glyph-name="slash.case" 
 />
    <glyph glyph-name="semicolon.case.ss03" 
 />
    <glyph glyph-name="comma.ss03" 
 />
    <glyph glyph-name="semicolon.ss03" 
 />
    <glyph glyph-name="braceleft.case" 
 />
    <glyph glyph-name="braceright.case" 
 />
    <glyph glyph-name="bracketleft.case" 
 />
    <glyph glyph-name="bracketright.case" 
 />
    <glyph glyph-name="parenleft.case" 
 />
    <glyph glyph-name="parenright.case" 
 />
    <glyph glyph-name="emdash.case" 
 />
    <glyph glyph-name="endash.case" 
 />
    <glyph glyph-name="hyphen.case" 
 />
    <glyph glyph-name="guillemotleft.case" 
 />
    <glyph glyph-name="guillemotright.case" 
 />
    <glyph glyph-name="guilsinglleft.case" 
 />
    <glyph glyph-name="guilsinglright.case" 
 />
    <glyph glyph-name="quotedblbase.ss03" 
 />
    <glyph glyph-name="quotedblleft.ss03" 
 />
    <glyph glyph-name="quotedblright.ss03" 
 />
    <glyph glyph-name="quoteleft.ss03" 
 />
    <glyph glyph-name="quoteright.ss03" 
 />
    <glyph glyph-name="quotesinglbase.ss03" 
 />
    <glyph glyph-name="dollar.osf" 
 />
    <glyph glyph-name="Euro.osf" 
 />
    <glyph glyph-name="sterling.osf" 
 />
    <glyph glyph-name="yen.osf" 
 />
    <glyph glyph-name="at.case" 
 />
    <glyph glyph-name="caron.alt" 
 />
    <glyph glyph-name="acute.case" 
 />
    <glyph glyph-name="breve.case" 
 />
    <glyph glyph-name="caron.case" 
 />
    <glyph glyph-name="cedilla.case" 
 />
    <glyph glyph-name="circumflex.case" 
 />
    <glyph glyph-name="dieresis.case" 
 />
    <glyph glyph-name="dotaccent.case" 
 />
    <glyph glyph-name="grave.case" 
 />
    <glyph glyph-name="hungarumlaut.case" 
 />
    <glyph glyph-name="macron.case" 
 />
    <glyph glyph-name="ogonek.case" 
 />
    <glyph glyph-name="ring.case" 
 />
    <glyph glyph-name="tilde.case" 
 />
    <glyph glyph-name="brevecombcy" 
 />
    <glyph glyph-name="NULL" 
 />
    <glyph glyph-name="commaccent" 
 />
    <glyph glyph-name="commaccent.case" 
 />
    </font>
</defs>
</svg>
